<?xml version="1.0" encoding="UTF-8"?><svg id="Layer_1" xmlns="http://www.w3.org/2000/svg" width="16.39in" height="11.11in" viewBox="0 0 1180 800"><g id="Bike"><g id="Wheels-cockpit"><path d="M498.29,380.88c-9.07-40.63-30.97-76.97-61.95-104.49-.33-.29-1.05-1.41-.92-1.86l-14.97,17.76c43.33,37.31,65.99,95.18,57.03,151.77l24.35,3.63c-.34-.13-1.13-1.57-1.03-2.37,2.76-21.6,2.27-43.05-2.51-64.44Z" fill="none" stroke="#35342d" stroke-miterlimit="10" stroke-width="3"/><path d="M485.55,468.62l-12.35-2.6-.54,3.37c-17.14,57.79-62.98,102.79-121.29,118.47-56.4,15.17-116.71.41-160.37-38.32-39.01-34.6-60.35-85.86-57.88-137.47.15-.36.3-1.58.26-1.95,3.4-42.52,21.9-82.94,53.28-112.19,40.55-37.8,96.5-54.97,151.26-45.2,26.82,4.79,51.7,16.27,73.63,32.18l2.3-2.8,6.55-7.98,2.1-2.56,3.76-4.54-2.61-.77c-37.12-27.77-82.78-41.55-129.48-38.41-28.31,2.11-55.33,10.27-80.22,23.27-68.43,35.74-109.51,109.73-102.96,186.32,4.47,52.24,30.81,100.74,71.61,134.28,45.09,37.06,104.86,52.41,162.3,40.92,34.89-6.98,67.38-23.38,93.45-47.48,26.98-24.94,46.55-56.52,56.5-91.72l1.34-2.56-2-.41-8.66-1.85Z" fill="none" stroke="#35342d" stroke-miterlimit="10" stroke-width="3"/><path d="M1061.61,359.48c-14.15-41.8-42.62-77.66-79.53-101.63-38.91-25.26-85.73-35.37-132.08-28.3-16.19,2.47-31.33,6.92-46.3,12.54l8.29,20.84c48.24-19.03,101.48-17.45,147.34,7.79,16.31,8.98,30.84,19.87,43.52,33.62,19.97,21.65,34.49,47.73,41.54,76.49,9.08,37.03,5.41,76.12-9.82,110.85-19.03,43.38-54.61,76.86-99.34,92.84-45.48,16.25-96.8,12.72-139.55-9.78-41.08-21.62-71.09-58.63-84.68-102.9-18.54-60.38-1.29-125.45,41.98-170.22,10.55-10.19,21.97-19.53,35-26.89l.99-.09-.59-1.29-5.29-11.11-3.53-6.84c-1.97-.67-2.66-.36-4.29.62-34.52,20.69-60.6,50.91-77.26,87.46-43.08,94.5-2,205.54,89.73,252.92,65.43,33.8,147.49,26.58,206.12-17.66,67.29-50.77,94.82-139.3,67.74-219.28Z" fill="none" stroke="#35342d" stroke-miterlimit="10" stroke-width="3"/><path d="M370.62,65.07c10.05,5.92,21.14,7.29,32.12,3.41,6.79-2.4,13.49-4.07,20.81-4.81,16.42-1.65,32.43-2.98,48.96-3.38l28.14.78c.69-3.7-.92-6.43-3.62-8.14-8.97-5.71-21.27-4.87-32.35-4.23l-55.51,3.23c-15.64.3-30.48-2.22-45.71-5.05-4.37-.81-8.67-1.59-12.88-1.15-4.74.5-7.7,4.34-6.74,9.06,9.81,1.48,18.36,5.33,26.76,10.28Z" fill="none" stroke="#35342d" stroke-miterlimit="10" stroke-width="3"/><path d="M400.9,73.78c.24,3.67.68,7.28,2.6,10.17,1.84,2.78,9.86.22,12.27,8.11l34.77,113.78,2.65,6.45,15.34-3.86c-12.81-40.89-24.99-81.78-36.05-123.31l-2.22-14.42-29.36,3.1Z" fill="none" stroke="#35342d" stroke-miterlimit="10" stroke-width="3"/><path d="M739.69,138.34c1.67,6.83,5.59.88,7.4,7.61.89,3.33,1.37,6.26.55,9.71l14.97-4.02,7.84-2.35-1.99-2.02-3.06-8.48c-.43-1.19,1.73-3.19,2.95-3.36l33.45-4.63c4.67,2.13,9.48,2.79,14.35,1.65,4.38-1.56,6.35-5.5,6.65-10.37l9.83-.76c6.96-.54,13.02,5.79,16.87,12.33,2.67,4.54,2.74,9.86-.1,14.47-5.19,8.42-11.29,16.29-18.85,22.75-8.14,6.96-17.48,11.02-27.55,14.27l-14.79,4.77c-.56.18-1.81.3-1.86.02-2.3,3.27-5.97,4.5-4.01,10.41.7,2.12,2.68,4.59,5.64,4.77l3.01.18c.53.03.65,1.26.78,1.72l.64-2.45c18.34-4.95,37.89-12.04,51.97-25.03,8.09-7.46,15.1-15.66,20.34-25.37,3.49-6.46,4.22-13.81,3.91-21.11-.09-2.05.7-4.09,2.44-5.28l18.22-12.51c3.23-2.22,7.93,10.74,7.7,18.78l-6.21,7.07c-1.34,1.53-2.49,4.03-2.13,6.25.43,2.7.86,6.09,2.18,8.3,4.21,7.06,9.72,12.86,15.88,18.05,1.63,1.38,3.98,1.84,5.7.45l-3.75-5.64c-2.51-8.63-4.78-17.22-4.91-26.33l1.56-21.3c.33-4.51-.1-8.62-2.36-12.68-1-1.81-.83-4.4.47-6.05l5.56-7.08c2.98-3.8-2.61-12.57-7.26-14.85-5.97-2.94-16.13-3.33-17.86.77l-5.29,12.58c-.52,1.24-2.68,3.27-3.87,3.87-14.39,7.15-30.27,5.96-45.48,6.02l-21.58.1c-3.48.02-6.11,3.56-8.49,6.23l-39.14,6.45-2.83-2.47-13.8,3.36c-1.03.25-2.45,1.94-3.14,2.66-1.13,1.17-4.23,3.46-3.79,5.25l3.25,13.26Z" fill="none" stroke="#35342d" stroke-miterlimit="10" stroke-width="3"/></g><path id="Bike_Frame" d="M786.36,189.94c-2.3,3.27-5.97,4.5-4.01,10.41.7,2.12,2.68,4.59,5.64,4.77l3.01.18c.53.03.65,1.26.78,1.72l6.32,21.29,5.61,13.77,8.29,20.84,46.37,116.43,15.14,37.73c5.72,2.8,8.2,8.97,5.54,14.53-2.7,5.04-8.46,6.61-13.29,4.67s-7.41-7.13-6.16-12.89l-59.73-126.36-10.9-22.38-.59-1.29-5.29-11.11-3.53-6.84-5.31-13.34c-.68-1.7-2.85-3.29-4.29-3.47s-4.59.29-5.56,1.25l-11.35,11.18-94.68,105.64-76.85,89.56-19.59,23.01c-9.51,11.17-18.8,17.67-33.07,11.06l-9.34-4.32-23.32-5.08-2-.41-8.66-1.85-12.35-2.6-115.17-26.41-30.95-7.14c-5.18-1.2-9.82-.22-14.1,2.74-4.91,3.4-11.51,1.72-14.84-2.65-3.75-4.91-2.24-10.37,1.77-15.14l111.63-132.5,2.3-2.8,6.55-7.98,2.1-2.56,3.76-4.54,25.53-31.29c1.92-2.36,3.59-6.11,2.88-9l-2.97-12.15c-.18-.75.71-2.13,1.48-2.32l15.34-3.86c2.12-.53,2.85.38,4.54,1.95,2.3,2.13,6.57,2.72,10.2,1.97l153.28-31.57,103.38-21.13c3.6-.74,5.01-3.25,7.72-3.98l14.97-4.02,7.84-2.35c.63.07,2.38,1.11,2.68,2l13.22,38.65ZM553.27,433.2l72.05-78.89,81.54-92.09,36.12-41.63c6.41-7.39,7.74-13.73,8.29-23.55.21-3.76-2.27-7.17-5.75-8.41-6.27-2.24-12.74-3.22-19.55-2.75-17.5,1.21-34.34,3.17-51.66,6.51l-156.43,30.22c-10.76,2.08-20.52,5.31-30.3,9.62-3.79,1.67-6.02,5.54-4.9,9.49l8.83,31.13,26.68,85.55,23.92,73.87c.67,2.08,3.74,3.67,5.34,3.85,1.8.2,4.02-.95,5.82-2.92ZM435.42,274.53l-14.97,17.76-67.57,78.93-29.99,35.36c-2.4,2.83-3.72,6.52-1.97,10.13.81,1.68,3.59,3.02,5.66,3.38l49.41,8.71,101.49,15.26,24.35,3.63,13.99,2c1.75.25,4.42-.68,5.46-1.88.95-1.09,1.94-4.2,1.5-5.81l-5.37-19.54-35.52-111.29-16.53-47.44c-1.08-3.11-3.23-6.36-6.14-7.57-4.2-1.74-8.66.41-11.4,3.65l-12.4,14.7ZM306.25,422.02c-2.67.58-4.04,3.28-3.33,5.64.67,2.22,3.18,3.75,5.73,2.94,2.06-.66,3.51-3.13,2.82-5.64-.52-1.89-2.94-3.44-5.22-2.94ZM868.04,422.57c-2.51,1.08-3.37,4.21-2.29,6.12,1.24,2.18,3.97,2.83,5.99,1.86s2.99-3.57,2.18-5.64c-.85-2.17-3.59-3.33-5.88-2.34ZM545.77,474.26c3.61-1.9,4.97-5.79,4.11-9.33-.77-3.17-3.32-5.86-6.87-6.58-4.33-.87-8.06,1.1-9.9,4.67s-.82,7.49,1.67,9.9c2.91,2.83,7.22,3.32,11,1.33Z" fill="none" stroke="#00a7c5" stroke-miterlimit="10" stroke-width="3"/><line id="HTangle-dotted" x1="742.28" y1="96.83" x2="898.96" y2="594.69" fill="none" stroke="#f8d29a" stroke-dasharray="5 0 0" stroke-miterlimit="10"/><line id="seattube-dotted" x1="425.94" y1="95.04" x2="541.48" y2="468.26" fill="none" stroke="#f8d29a" stroke-dasharray="5 0 0" stroke-miterlimit="10"/><line id="forkoffset-dotted" x1="869.81" y1="426.8" x2="889.5" y2="487.16" fill="none" stroke="#f8d29a" stroke-dasharray="5 0 0" stroke-miterlimit="10"/><line id="EffTT-dotted" x1="758.93" y1="150.5" x2="442.96" y2="150.5" fill="none" stroke="#f8d29a" stroke-dasharray="5 0 0" stroke-miterlimit="10"/><line id="wheelbase-dotted" x1="870.01" y1="426.21" x2="306.24" y2="426.21" fill="none" stroke="#f8d29a" stroke-dasharray="5 0 0" stroke-miterlimit="10"/><g id="effectiveTT-dim"><line x1="759" y1="150.89" x2="759" y2="91.59" fill="none" stroke="#f8d29a" stroke-dasharray="5 0 0" stroke-miterlimit="10"/><line x1="444.82" y1="150.89" x2="444.82" y2="91.59" fill="none" stroke="#f8d29a" stroke-dasharray="5 0 0" stroke-miterlimit="10"/><line x1="451.92" y1="106.49" x2="753" y2="106.49" fill="none" stroke="#fcb94a" stroke-miterlimit="10" stroke-width="2"/><polygon points="444.86 106.49 454.81 110.55 452.45 106.49 454.81 102.42 444.86 106.49" fill="#fcb94a"/><path d="M759.04,106.49c-2.84,1.05-6.36,2.85-8.55,4.76l1.72-4.76-1.72-4.75c2.18,1.9,5.71,3.7,8.55,4.75Z" fill="#fcb94a"/></g><g id="Stack-dim"><line x1="541.45" y1="157.94" x2="541.45" y2="462.37" fill="none" stroke="#fcb94a" stroke-miterlimit="10" stroke-width="2"/><polygon points="541.45 150.88 537.38 160.83 541.45 158.47 545.51 160.83 541.45 150.88" fill="#fcb94a"/><path d="M541.45,468.4c-1.05-2.84-2.85-6.36-4.76-8.55l4.76,1.72,4.75-1.72c-1.9,2.18-3.7,5.71-4.75,8.55Z" fill="#fcb94a"/></g><g id="Reach-dim"><line x1="548.26" y1="133.19" x2="752.34" y2="133.19" fill="none" stroke="#fcb94a" stroke-miterlimit="10" stroke-width="2"/><polygon points="541.2 133.19 551.15 137.25 548.79 133.19 551.15 129.12 541.2 133.19" fill="#fcb94a"/><path d="M758.38,133.19c-2.84,1.05-6.36,2.85-8.55,4.76l1.72-4.76-1.72-4.75c2.18,1.9,5.71,3.7,8.55,4.75Z" fill="#fcb94a"/></g><g id="BBdrop-dim"><line id="wheelbase" x1="625.21" y1="468.22" x2="541.66" y2="468.22" fill="none" stroke="#f8d29a" stroke-dasharray="5 0 0" stroke-miterlimit="10"/><g id="stack"><line x1="602.9" y1="433.44" x2="602.9" y2="462.95" fill="none" stroke="#fcb94a" stroke-miterlimit="10" stroke-width="2"/><polygon points="602.9 426.38 598.83 436.33 602.9 433.97 606.96 436.33 602.9 426.38" fill="#fcb94a"/><path d="M602.9,468.99c-1.05-2.84-2.85-6.36-4.76-8.55l4.76,1.72,4.75-1.72c-1.9,2.18-3.7,5.71-4.75,8.55Z" fill="#fcb94a"/></g></g><g id="FrontCenter-dim"><line x1="548.8" y1="517.69" x2="864.26" y2="476.91" fill="none" stroke="#fcb94a" stroke-miterlimit="10" stroke-width="2"/><polygon points="541.8 518.59 552.19 521.35 549.32 517.62 551.15 513.29 541.8 518.59" fill="#fcb94a"/><path d="M870.25,476.14c-2.68,1.41-5.95,3.64-7.87,5.81l1.1-4.94-2.32-4.5c2.41,1.61,6.14,2.94,9.09,3.62Z" fill="#fcb94a"/></g><g id="Chainstay-dim"><line x1="313.64" y1="477.63" x2="534.95" y2="517.44" fill="none" stroke="#fcb94a" stroke-miterlimit="10" stroke-width="2"/><polygon points="306.69 476.38 315.77 482.14 314.16 477.72 317.21 474.14 306.69 476.38" fill="#fcb94a"/><path d="M540.89,518.51c-2.98.53-6.77,1.68-9.25,3.17l2.54-4.38-.85-4.98c1.81,2.26,4.96,4.65,7.57,6.19Z" fill="#fcb94a"/></g><line id="wheelbase2-dotted" x1="869.72" y1="596.01" x2="869.72" y2="421.74" fill="none" stroke="#f8d29a" stroke-dasharray="5 0 0" stroke-miterlimit="10"/><line id="wheelbase1-dotted" x1="306.58" y1="571.04" x2="306.58" y2="421.74" fill="none" stroke="#f8d29a" stroke-dasharray="5 0 0" stroke-miterlimit="10"/><g id="Wheelbase-dim"><line x1="313.85" y1="558.76" x2="863.69" y2="558.76" fill="none" stroke="#fcb94a" stroke-miterlimit="10" stroke-width="2"/><polygon points="306.79 558.76 316.74 562.82 314.38 558.76 316.74 554.69 306.79 558.76" fill="#fcb94a"/><path d="M869.73,558.76c-2.84,1.05-6.36,2.85-8.55,4.76l1.72-4.76-1.72-4.75c2.18,1.9,5.71,3.7,8.55,4.75Z" fill="#fcb94a"/></g><g id="HTangle-dim"><path d="M767.52,419.62c2.34-21.99,17.04-41.57,37.65-50.08,5.03-2.08,9.52-3.39,14.47-4" fill="none" stroke="#fcb94a" stroke-miterlimit="10" stroke-width="2"/><path d="M767.19,425.65c1.24-2.76,3.26-6.16,5.3-8.22l-4.86,1.41-4.63-2.03c1.76,2.3,3.32,5.94,4.19,8.84Z" fill="#fcb94a"/><path d="M825.66,365.13c-2.75,1.28-6.12,3.35-8.14,5.42l1.34-4.88-2.09-4.6c2.33,1.73,5.98,3.24,8.9,4.06Z" fill="#fcb94a"/></g><g id="seattubeangle"><path d="M498.73,353.92c-35.79,2.96-64.17,32.02-66.08,68.09" fill="none" stroke="#fcb94a" stroke-miterlimit="10" stroke-width="2"/><path d="M504.77,353.67c-2.89-.92-6.49-2.55-8.76-4.35l1.94,4.67-1.49,4.83c2.09-2.01,5.53-3.97,8.31-5.15Z" fill="#fcb94a"/><path d="M432.61,428.02c-1.01-2.85-2.76-6.4-4.63-8.61l4.73,1.79,4.78-1.65c-1.94,2.16-3.78,5.65-4.88,8.48Z" fill="#fcb94a"/></g><g id="HTlength-dim"><line x1="759.08" y1="150.63" x2="809.23" y2="135.47" fill="none" stroke="#f8d29a" stroke-dasharray="5 0 0" stroke-miterlimit="10"/><line x1="785.04" y1="235.11" x2="835.19" y2="219.96" fill="none" stroke="#f8d29a" stroke-dasharray="5 0 0" stroke-miterlimit="10"/><g id="HTlength"><line x1="801.45" y1="145.55" x2="824.08" y2="216.46" fill="none" stroke="#fcb94a" stroke-miterlimit="10" stroke-width="2"/><polygon points="799.3 138.83 798.45 149.54 801.61 146.06 806.2 147.07 799.3 138.83" fill="#fcb94a"/><path d="M825.92,222.21c-1.87-2.38-4.65-5.19-7.13-6.7l5.05.19,4.01-3.08c-1.15,2.66-1.79,6.56-1.93,9.59Z" fill="#fcb94a"/></g></g><g id="Trail-dim"><line x1="892.61" y1="596.34" x2="876.1" y2="596.34" fill="none" stroke="#fcb94a" stroke-miterlimit="10" stroke-width="2"/><polygon points="899.67 596.34 889.72 592.27 892.08 596.34 889.72 600.4 899.67 596.34" fill="#fcb94a"/><path d="M870.07,596.34c2.84-1.05,6.36-2.85,8.55-4.76l-1.72,4.76,1.72,4.75c-2.18-1.9-5.71-3.7-8.55-4.75Z" fill="#fcb94a"/></g><g id="Stack-button"><path d="M160.01,693.56l-.64-3.23h-3.36l-.64,3.23c-.09.43-.35.64-.79.64h-1.65c-.26,0-.46-.1-.62-.29-.16-.18-.22-.41-.17-.66l3.17-15.79c.08-.43.34-.64.77-.64h3.21c.44,0,.7.21.79.64l3.15,15.79c.04.26-.01.48-.17.66-.16.19-.37.29-.61.29h-1.66c-.44,0-.7-.21-.79-.64ZM158.73,687.12l-1.04-5.2-1.04,5.2h2.08Z" fill="#fcb94a"/><path d="M186.64,694.2h-3.23c-.86,0-1.61-.32-2.25-.96s-.97-1.39-.97-2.25v-.61c0-.53.26-.8.79-.8h1.63c.53,0,.8.27.8.8v.61h3.24v-3.87h-3.23c-.86,0-1.61-.32-2.25-.96s-.97-1.39-.97-2.25v-3.88c0-.85.32-1.6.97-2.24s1.4-.97,2.25-.97h3.23c.85,0,1.6.32,2.24.96.65.64.97,1.39.97,2.23v.53c0,.52-.26.79-.79.79h-1.63c-.53,0-.8-.26-.8-.79v-.52h-3.24v3.87h3.24c.85,0,1.6.32,2.24.96.65.64.97,1.39.97,2.23v3.91c0,.86-.32,1.61-.97,2.25-.65.63-1.39.95-2.24.95Z" fill="#f8d29a"/><path d="M200.2,680.02h-2.39v13.38c0,.53-.27.8-.8.8h-1.63c-.53,0-.8-.27-.8-.8v-13.38h-2.39c-.53,0-.8-.26-.8-.79v-1.63c0-.53.27-.8.8-.8h8c.53,0,.8.27.8.8v1.63c0,.52-.27.79-.8.79Z" fill="#f8d29a"/><path d="M207.45,693.56l-.64-3.23h-3.36l-.64,3.23c-.09.43-.35.64-.79.64h-1.65c-.26,0-.46-.1-.62-.29-.16-.18-.22-.41-.17-.66l3.17-15.79c.08-.43.34-.64.77-.64h3.21c.44,0,.7.21.79.64l3.15,15.79c.04.26-.01.48-.17.66-.16.19-.37.29-.61.29h-1.66c-.44,0-.7-.21-.79-.64ZM206.16,687.12l-1.04-5.2-1.04,5.2h2.08Z" fill="#f8d29a"/><path d="M220.91,693.45c-.57.5-1.24.75-2,.75h-3.42c-.85,0-1.59-.32-2.24-.96s-.97-1.38-.97-2.24v-10.99c0-.85.32-1.59.97-2.23.65-.64,1.4-.96,2.25-.96h3.4c.85,0,1.6.32,2.26.97s.99,1.4.99,2.25v.51c0,.52-.27.79-.8.79h-1.63c-.52,0-.79-.26-.79-.79v-.52h-3.45v10.97h3.45v-.61c0-.53.26-.8.79-.8h1.63c.53,0,.8.27.8.8v.61c0,.93-.41,1.75-1.24,2.46Z" fill="#f8d29a"/><path d="M233.37,677.97l-3.73,7.55,3.73,7.54c.12.26.11.52-.03.77-.16.25-.38.38-.68.38h-1.8c-.35,0-.59-.15-.72-.45l-3.23-6.63v6.29c0,.53-.27.8-.8.8h-1.63c-.52,0-.79-.27-.79-.8v-15.79c0-.53.26-.8.79-.8h1.63c.53,0,.8.27.8.8v6.29l3.23-6.63c.15-.3.39-.45.72-.45h1.8c.29,0,.51.12.68.38.15.27.16.52.03.77Z" fill="#f8d29a"/><rect x="166.87" y="683.89" width="8.09" height="3.01" rx=".65" ry=".65" fill="#f8d29a"/></g><g id="Reach-button"><path d="M158.57,730.08h-5.72c-.52,0-.79-.27-.79-.8v-15.79c0-.53.26-.8.79-.8h5.72c.84,0,1.59.32,2.24.96.65.64.98,1.39.98,2.23v2.88c0,.73-.23,1.38-.7,1.94l-.54.66.56.7c.45.56.67,1.2.67,1.92v2.9c0,.86-.32,1.6-.97,2.24s-1.4.96-2.25.96ZM155.28,719.78h3.3v-3.87h-3.3v3.87ZM155.28,726.88h3.3v-3.87h-3.3v3.87Z" fill="#fcb94a"/><path d="M189.38,730.08h-1.74c-.35,0-.6-.17-.73-.51l-2.54-6.57h-.95v6.29c0,.53-.27.8-.8.8h-1.63c-.53,0-.8-.27-.8-.8v-15.79c0-.53.27-.8.8-.8h5.65c.85,0,1.6.32,2.26.97.66.65.98,1.4.98,2.25v3.85c0,.68-.21,1.29-.63,1.85-.42.55-.94.94-1.55,1.17l2.41,6.21c.1.27.08.52-.08.74-.16.23-.38.34-.66.34ZM186.67,719.78v-3.87h-3.25v3.87h3.25Z" fill="#f8d29a"/><path d="M199.4,730.08h-4.53c-.84,0-1.56-.3-2.16-.9s-.9-1.32-.9-2.16v-13.53c0-.53.27-.8.8-.8h6.72c.53,0,.8.27.8.8v1.63c0,.52-.27.79-.8.79h-4.3v3.87h3.6c.53,0,.8.27.8.8v1.63c0,.53-.27.8-.8.8h-3.6v3.87h4.37c.53,0,.8.27.8.8v1.62c0,.53-.27.8-.8.8Z" fill="#f8d29a"/><path d="M209.69,729.44l-.64-3.23h-3.36l-.64,3.23c-.09.43-.35.64-.79.64h-1.65c-.26,0-.46-.1-.62-.29-.16-.18-.22-.41-.17-.66l3.17-15.79c.08-.43.34-.64.77-.64h3.21c.44,0,.7.21.79.64l3.15,15.79c.04.26-.01.48-.17.66-.16.19-.37.29-.61.29h-1.66c-.44,0-.7-.21-.79-.64ZM208.41,723l-1.04-5.2-1.04,5.2h2.08Z" fill="#f8d29a"/><path d="M223.16,729.33c-.57.5-1.24.75-2,.75h-3.42c-.85,0-1.59-.32-2.24-.96s-.97-1.38-.97-2.24v-10.99c0-.85.32-1.59.97-2.23.65-.64,1.4-.96,2.25-.96h3.4c.85,0,1.6.32,2.26.97s.99,1.4.99,2.25v.51c0,.52-.27.79-.8.79h-1.63c-.52,0-.79-.26-.79-.79v-.52h-3.45v10.97h3.45v-.61c0-.53.26-.8.79-.8h1.63c.53,0,.8.27.8.8v.61c0,.93-.41,1.75-1.24,2.46Z" fill="#f8d29a"/><path d="M235.22,730.08h-1.63c-.53,0-.8-.27-.8-.8v-6.29h-3.64v6.29c0,.53-.26.8-.79.8h-1.64c-.52,0-.79-.27-.79-.8v-15.79c0-.53.26-.8.79-.8h1.64c.52,0,.79.27.79.8v6.29h3.64v-6.29c0-.53.27-.8.8-.8h1.63c.52,0,.79.27.79.8v15.79c0,.53-.26.8-.79.8Z" fill="#f8d29a"/><rect x="166.87" y="719.77" width="8.09" height="3.01" rx=".65" ry=".65" fill="#f8d29a"/></g><g id="ForkOffest-button"><path d="M319.01,680.03v10.94c0,.86-.33,1.62-.99,2.26-.66.64-1.41.96-2.25.96h-5.95c-.53,0-.8-.27-.8-.8v-15.79c0-.53.27-.8.8-.8h5.94c.85,0,1.6.32,2.26.97.66.65.99,1.4.99,2.25ZM315.8,690.99v-10.97h-3.55v10.97h3.55Z" fill="#fcb94a"/><path d="M344.67,680.02h-4.29v3.87h3.6c.52,0,.79.27.79.8v1.63c0,.53-.26.8-.79.8h-3.6v6.29c0,.53-.27.8-.8.8h-1.63c-.53,0-.8-.27-.8-.8v-13.52c0-.84.3-1.56.9-2.16.6-.6,1.32-.9,2.17-.9h4.45c.53,0,.8.27.8.8v1.63c0,.52-.27.79-.8.79Z" fill="#f8d29a"/><path d="M353.88,694.2h-3.66c-.86,0-1.6-.32-2.25-.95-.64-.63-.96-1.38-.96-2.24v-11c0-.85.32-1.59.97-2.23.65-.64,1.39-.96,2.24-.96h3.65c.85,0,1.6.32,2.25.96.65.64.98,1.39.98,2.25v10.98c0,.86-.33,1.6-.98,2.24-.65.64-1.4.96-2.24.96ZM353.88,690.99v-10.97h-3.66v10.97h3.66Z" fill="#f8d29a"/><path d="M367.84,694.2h-1.74c-.35,0-.6-.17-.73-.51l-2.54-6.57h-.95v6.29c0,.53-.27.8-.8.8h-1.63c-.53,0-.8-.27-.8-.8v-15.79c0-.53.27-.8.8-.8h5.65c.85,0,1.6.32,2.26.97.66.65.98,1.4.98,2.25v3.85c0,.68-.21,1.29-.63,1.85-.42.55-.94.94-1.55,1.17l2.41,6.21c.1.27.08.52-.08.74-.16.23-.38.34-.66.34ZM365.13,683.9v-3.87h-3.25v3.87h3.25Z" fill="#f8d29a"/><path d="M379.95,677.97l-3.73,7.55,3.73,7.54c.12.26.11.52-.03.77-.16.25-.38.38-.68.38h-1.8c-.35,0-.59-.15-.72-.45l-3.23-6.63v6.29c0,.53-.27.8-.8.8h-1.63c-.52,0-.79-.27-.79-.8v-15.79c0-.53.26-.8.79-.8h1.63c.53,0,.8.27.8.8v6.29l3.23-6.63c.15-.3.39-.45.72-.45h1.8c.29,0,.51.12.68.38.15.27.16.52.03.77Z" fill="#f8d29a"/><path d="M394.1,694.2h-3.66c-.86,0-1.6-.32-2.25-.95-.64-.63-.96-1.38-.96-2.24v-11c0-.85.32-1.59.97-2.23.65-.64,1.39-.96,2.24-.96h3.65c.85,0,1.6.32,2.25.96.65.64.98,1.39.98,2.25v10.98c0,.86-.33,1.6-.98,2.24-.65.64-1.4.96-2.24.96ZM394.1,690.99v-10.97h-3.66v10.97h3.66Z" fill="#f8d29a"/><path d="M406.38,680.02h-4.29v3.87h3.6c.52,0,.79.27.79.8v1.63c0,.53-.26.8-.79.8h-3.6v6.29c0,.53-.27.8-.8.8h-1.63c-.53,0-.8-.27-.8-.8v-13.52c0-.84.3-1.56.9-2.16.6-.6,1.32-.9,2.17-.9h4.45c.53,0,.8.27.8.8v1.63c0,.52-.27.79-.8.79Z" fill="#f8d29a"/><path d="M416.24,680.02h-4.29v3.87h3.6c.52,0,.79.27.79.8v1.63c0,.53-.26.8-.79.8h-3.6v6.29c0,.53-.27.8-.8.8h-1.63c-.53,0-.8-.27-.8-.8v-13.52c0-.84.3-1.56.9-2.16.6-.6,1.32-.9,2.17-.9h4.45c.53,0,.8.27.8.8v1.63c0,.52-.27.79-.8.79Z" fill="#f8d29a"/><path d="M425.04,694.2h-3.23c-.86,0-1.61-.32-2.25-.96s-.97-1.39-.97-2.25v-.61c0-.53.26-.8.79-.8h1.63c.53,0,.8.27.8.8v.61h3.24v-3.87h-3.23c-.86,0-1.61-.32-2.25-.96s-.97-1.39-.97-2.25v-3.88c0-.85.32-1.6.97-2.24s1.4-.97,2.25-.97h3.23c.85,0,1.6.32,2.24.96.65.64.97,1.39.97,2.23v.53c0,.52-.26.79-.79.79h-1.63c-.53,0-.8-.26-.8-.79v-.52h-3.24v3.87h3.24c.85,0,1.6.32,2.24.96.65.64.97,1.39.97,2.23v3.91c0,.86-.32,1.61-.97,2.25-.65.63-1.39.95-2.24.95Z" fill="#f8d29a"/><path d="M437.37,694.2h-4.53c-.84,0-1.56-.3-2.16-.9s-.9-1.32-.9-2.16v-13.53c0-.53.27-.8.8-.8h6.72c.53,0,.8.27.8.8v1.63c0,.52-.27.79-.8.79h-4.3v3.87h3.6c.53,0,.8.27.8.8v1.63c0,.53-.27.8-.8.8h-3.6v3.87h4.37c.53,0,.8.27.8.8v1.62c0,.53-.27.8-.8.8Z" fill="#f8d29a"/><path d="M448.52,680.02h-2.39v13.38c0,.53-.27.8-.8.8h-1.63c-.53,0-.8-.27-.8-.8v-13.38h-2.39c-.53,0-.8-.26-.8-.79v-1.63c0-.53.27-.8.8-.8h8c.53,0,.8.27.8.8v1.63c0,.52-.27.79-.8.79Z" fill="#f8d29a"/><rect x="323.83" y="683.89" width="8.09" height="3.01" rx=".65" ry=".65" fill="#f8d29a"/></g><g id="FrontCenter-button"><path d="M316.61,730.08h-4.53c-.84,0-1.56-.3-2.16-.9s-.9-1.32-.9-2.16v-13.53c0-.53.27-.8.8-.8h6.72c.53,0,.8.27.8.8v1.63c0,.52-.27.79-.8.79h-4.3v3.87h3.6c.53,0,.8.27.8.8v1.63c0,.53-.27.8-.8.8h-3.6v3.87h4.37c.53,0,.8.27.8.8v1.62c0,.53-.27.8-.8.8Z" fill="#fcb94a"/><path d="M344.67,715.91h-4.29v3.87h3.6c.52,0,.79.27.79.8v1.63c0,.53-.26.8-.79.8h-3.6v6.29c0,.53-.27.8-.8.8h-1.63c-.53,0-.8-.27-.8-.8v-13.52c0-.84.3-1.56.9-2.16.6-.6,1.32-.9,2.17-.9h4.45c.53,0,.8.27.8.8v1.63c0,.52-.27.79-.8.79Z" fill="#f8d29a"/><path d="M356.2,730.08h-1.74c-.35,0-.6-.17-.73-.51l-2.54-6.57h-.95v6.29c0,.53-.27.8-.8.8h-1.63c-.53,0-.8-.27-.8-.8v-15.79c0-.53.27-.8.8-.8h5.65c.85,0,1.6.32,2.26.97.66.65.98,1.4.98,2.25v3.85c0,.68-.21,1.29-.63,1.85-.42.55-.94.94-1.55,1.17l2.41,6.21c.1.27.08.52-.08.74-.16.23-.38.34-.66.34ZM353.49,719.78v-3.87h-3.25v3.87h3.25Z" fill="#f8d29a"/><path d="M365.51,730.08h-3.66c-.86,0-1.6-.32-2.25-.95-.64-.63-.96-1.38-.96-2.24v-11c0-.85.32-1.59.97-2.23.65-.64,1.39-.96,2.24-.96h3.65c.85,0,1.6.32,2.25.96.65.64.98,1.39.98,2.25v10.98c0,.86-.33,1.6-.98,2.24-.65.64-1.4.96-2.24.96ZM365.51,726.88v-10.97h-3.66v10.97h3.66Z" fill="#f8d29a"/><path d="M376.79,729.58l-3.31-8.6v8.31c0,.53-.27.8-.8.8h-1.6c-.53,0-.8-.27-.8-.8v-15.79c0-.53.27-.8.8-.8h2.1c.35,0,.6.17.74.51l3.32,8.61v-8.32c0-.53.27-.8.8-.8h1.59c.53,0,.8.27.8.8v15.78c0,.52-.26.79-.79.79h-2.1c-.37.02-.62-.15-.75-.49Z" fill="#f8d29a"/><path d="M390.78,715.91h-2.39v13.38c0,.53-.27.8-.8.8h-1.63c-.53,0-.8-.27-.8-.8v-13.38h-2.39c-.53,0-.8-.26-.8-.79v-1.63c0-.53.27-.8.8-.8h8c.53,0,.8.27.8.8v1.63c0,.52-.27.79-.8.79Z" fill="#f8d29a"/><path d="M407.29,729.33c-.57.5-1.24.75-2,.75h-3.42c-.85,0-1.59-.32-2.24-.96s-.97-1.38-.97-2.24v-10.99c0-.85.32-1.59.97-2.23.65-.64,1.4-.96,2.25-.96h3.4c.85,0,1.6.32,2.26.97s.99,1.4.99,2.25v.51c0,.52-.27.79-.8.79h-1.63c-.52,0-.79-.26-.79-.79v-.52h-3.45v10.97h3.45v-.61c0-.53.26-.8.79-.8h1.63c.53,0,.8.27.8.8v.61c0,.93-.41,1.75-1.24,2.46Z" fill="#f8d29a"/><path d="M417.66,730.08h-4.53c-.84,0-1.56-.3-2.16-.9s-.9-1.32-.9-2.16v-13.53c0-.53.27-.8.8-.8h6.72c.53,0,.8.27.8.8v1.63c0,.52-.27.79-.8.79h-4.3v3.87h3.6c.53,0,.8.27.8.8v1.63c0,.53-.27.8-.8.8h-3.6v3.87h4.37c.53,0,.8.27.8.8v1.62c0,.53-.27.8-.8.8Z" fill="#f8d29a"/><path d="M426.51,729.58l-3.31-8.6v8.31c0,.53-.27.8-.8.8h-1.6c-.53,0-.8-.27-.8-.8v-15.79c0-.53.27-.8.8-.8h2.1c.35,0,.6.17.74.51l3.32,8.61v-8.32c0-.53.27-.8.8-.8h1.59c.53,0,.8.27.8.8v15.78c0,.52-.26.79-.79.79h-2.1c-.37.02-.62-.15-.75-.49Z" fill="#f8d29a"/><path d="M440.49,715.91h-2.39v13.38c0,.53-.27.8-.8.8h-1.63c-.53,0-.8-.27-.8-.8v-13.38h-2.39c-.53,0-.8-.26-.8-.79v-1.63c0-.53.27-.8.8-.8h8c.53,0,.8.27.8.8v1.63c0,.52-.27.79-.8.79Z" fill="#f8d29a"/><path d="M450.42,730.08h-4.53c-.84,0-1.56-.3-2.16-.9s-.9-1.32-.9-2.16v-13.53c0-.53.27-.8.8-.8h6.72c.53,0,.8.27.8.8v1.63c0,.52-.27.79-.8.79h-4.3v3.87h3.6c.53,0,.8.27.8.8v1.63c0,.53-.27.8-.8.8h-3.6v3.87h4.37c.53,0,.8.27.8.8v1.62c0,.53-.27.8-.8.8Z" fill="#f8d29a"/><path d="M461.95,730.08h-1.74c-.35,0-.6-.17-.73-.51l-2.54-6.57h-.95v6.29c0,.53-.27.8-.8.8h-1.63c-.53,0-.8-.27-.8-.8v-15.79c0-.53.27-.8.8-.8h5.65c.85,0,1.6.32,2.26.97.66.65.98,1.4.98,2.25v3.85c0,.68-.21,1.29-.63,1.85-.42.55-.94.94-1.55,1.17l2.41,6.21c.1.27.08.52-.08.74-.16.23-.38.34-.66.34ZM459.24,719.78v-3.87h-3.25v3.87h3.25Z" fill="#f8d29a"/><rect x="323.83" y="719.77" width="8.09" height="3.01" rx=".65" ry=".65" fill="#f8d29a"/></g><g id="STangle-button"><path d="M530.28,694.2h-3.46c-.85,0-1.59-.32-2.24-.95-.65-.63-.97-1.38-.97-2.24v-10.99c0-.85.33-1.6.98-2.24s1.4-.97,2.25-.97h3.44c.85,0,1.6.32,2.25.97.65.65.98,1.39.98,2.24v.55c0,.52-.26.79-.79.79h-1.63c-.53,0-.8-.26-.8-.79v-.55h-3.47v10.97h3.47v-3.87h-1.41c-.52,0-.79-.27-.79-.8v-1.63c0-.53.26-.8.79-.8h3.83c.52,0,.79.27.79.8v6.3c0,.86-.33,1.61-.98,2.25-.65.64-1.4.96-2.25.96Z" fill="#fcb94a"/><path d="M558.18,694.2h-3.23c-.86,0-1.61-.32-2.25-.96s-.97-1.39-.97-2.25v-.61c0-.53.26-.8.79-.8h1.63c.53,0,.8.27.8.8v.61h3.24v-3.87h-3.23c-.86,0-1.61-.32-2.25-.96s-.97-1.39-.97-2.25v-3.88c0-.85.32-1.6.97-2.24s1.4-.97,2.25-.97h3.23c.85,0,1.6.32,2.24.96.65.64.97,1.39.97,2.23v.53c0,.52-.26.79-.79.79h-1.63c-.53,0-.8-.26-.8-.79v-.52h-3.24v3.87h3.24c.85,0,1.6.32,2.24.96.65.64.97,1.39.97,2.23v3.91c0,.86-.32,1.61-.97,2.25-.65.63-1.39.95-2.24.95Z" fill="#f8d29a"/><path d="M570.51,694.2h-4.53c-.84,0-1.56-.3-2.16-.9s-.9-1.32-.9-2.16v-13.53c0-.53.27-.8.8-.8h6.72c.53,0,.8.27.8.8v1.63c0,.52-.27.79-.8.79h-4.3v3.87h3.6c.53,0,.8.27.8.8v1.63c0,.53-.27.8-.8.8h-3.6v3.87h4.37c.53,0,.8.27.8.8v1.62c0,.53-.27.8-.8.8Z" fill="#f8d29a"/><path d="M580.81,693.56l-.64-3.23h-3.36l-.64,3.23c-.09.43-.35.64-.79.64h-1.65c-.26,0-.46-.1-.62-.29-.16-.18-.22-.41-.17-.66l3.17-15.79c.08-.43.34-.64.77-.64h3.21c.44,0,.7.21.79.64l3.15,15.79c.04.26-.01.48-.17.66-.16.19-.37.29-.61.29h-1.66c-.44,0-.7-.21-.79-.64ZM579.52,687.12l-1.04-5.2-1.04,5.2h2.08Z" fill="#f8d29a"/><path d="M591.4,680.02h-2.39v13.38c0,.53-.27.8-.8.8h-1.63c-.53,0-.8-.27-.8-.8v-13.38h-2.39c-.53,0-.8-.26-.8-.79v-1.63c0-.53.27-.8.8-.8h8c.53,0,.8.27.8.8v1.63c0,.52-.27.79-.8.79Z" fill="#f8d29a"/><path d="M608.07,680.02h-2.39v13.38c0,.53-.27.8-.8.8h-1.63c-.53,0-.8-.27-.8-.8v-13.38h-2.39c-.53,0-.8-.26-.8-.79v-1.63c0-.53.27-.8.8-.8h8c.53,0,.8.27.8.8v1.63c0,.52-.27.79-.8.79Z" fill="#f8d29a"/><path d="M617.18,694.2h-3.54c-.86,0-1.61-.32-2.25-.96s-.97-1.38-.97-2.24v-13.39c0-.53.27-.8.8-.8h1.62c.53,0,.8.27.8.8v13.38h3.6v-13.38c0-.53.26-.8.79-.8h1.63c.53,0,.8.27.8.8v13.37c0,.86-.33,1.62-.99,2.26s-1.42.96-2.26.96Z" fill="#f8d29a"/><path d="M628.49,694.2h-5.72c-.52,0-.79-.27-.79-.8v-15.79c0-.53.26-.8.79-.8h5.72c.84,0,1.59.32,2.24.96.65.64.98,1.39.98,2.23v2.88c0,.73-.23,1.38-.7,1.94l-.54.66.56.7c.45.56.67,1.2.67,1.92v2.9c0,.86-.32,1.6-.97,2.24s-1.4.96-2.25.96ZM625.19,683.9h3.3v-3.87h-3.3v3.87ZM625.19,690.99h3.3v-3.87h-3.3v3.87Z" fill="#f8d29a"/><path d="M640.84,694.2h-4.53c-.84,0-1.56-.3-2.16-.9s-.9-1.32-.9-2.16v-13.53c0-.53.27-.8.8-.8h6.72c.53,0,.8.27.8.8v1.63c0,.52-.27.79-.8.79h-4.3v3.87h3.6c.53,0,.8.27.8.8v1.63c0,.53-.27.8-.8.8h-3.6v3.87h4.37c.53,0,.8.27.8.8v1.62c0,.53-.27.8-.8.8Z" fill="#f8d29a"/><path d="M656.66,693.56l-.64-3.23h-3.36l-.64,3.23c-.09.43-.35.64-.79.64h-1.65c-.26,0-.46-.1-.62-.29-.16-.18-.22-.41-.17-.66l3.17-15.79c.08-.43.34-.64.77-.64h3.21c.44,0,.7.21.79.64l3.15,15.79c.04.26-.01.48-.17.66-.16.19-.37.29-.61.29h-1.66c-.44,0-.7-.21-.79-.64ZM655.38,687.12l-1.04-5.2-1.04,5.2h2.08Z" fill="#f8d29a"/><path d="M668,693.69l-3.31-8.6v8.31c0,.53-.27.8-.8.8h-1.6c-.53,0-.8-.27-.8-.8v-15.79c0-.53.27-.8.8-.8h2.1c.35,0,.6.17.74.51l3.32,8.61v-8.32c0-.53.27-.8.8-.8h1.59c.53,0,.8.27.8.8v15.78c0,.52-.26.79-.79.79h-2.1c-.37.02-.62-.15-.75-.49Z" fill="#f8d29a"/><path d="M679.87,694.2h-3.46c-.85,0-1.59-.32-2.24-.95-.65-.63-.97-1.38-.97-2.24v-10.99c0-.85.33-1.6.98-2.24s1.4-.97,2.25-.97h3.44c.85,0,1.6.32,2.25.97.65.65.98,1.39.98,2.24v.55c0,.52-.26.79-.79.79h-1.63c-.53,0-.8-.26-.8-.79v-.55h-3.47v10.97h3.47v-3.87h-1.41c-.52,0-.79-.27-.79-.8v-1.63c0-.53.26-.8.79-.8h3.83c.52,0,.79.27.79.8v6.3c0,.86-.33,1.61-.98,2.25-.65.64-1.4.96-2.25.96Z" fill="#f8d29a"/><path d="M691.82,694.2h-4.11c-.84,0-1.56-.3-2.16-.9-.6-.6-.9-1.32-.9-2.16v-13.53c0-.53.27-.8.8-.8h1.63c.53,0,.8.27.8.8v13.38h3.95c.52,0,.79.27.79.8v1.62c0,.53-.26.8-.79.8Z" fill="#f8d29a"/><path d="M701.73,694.2h-4.53c-.84,0-1.56-.3-2.16-.9s-.9-1.32-.9-2.16v-13.53c0-.53.27-.8.8-.8h6.72c.53,0,.8.27.8.8v1.63c0,.52-.27.79-.8.79h-4.3v3.87h3.6c.53,0,.8.27.8.8v1.63c0,.53-.27.8-.8.8h-3.6v3.87h4.37c.53,0,.8.27.8.8v1.62c0,.53-.27.8-.8.8Z" fill="#f8d29a"/><rect x="538.4" y="683.89" width="8.09" height="3.01" rx=".65" ry=".65" fill="#f8d29a"/></g><g id="HTangle-button"><path d="M532.88,730.08h-1.63c-.53,0-.8-.27-.8-.8v-6.29h-3.64v6.29c0,.53-.26.8-.79.8h-1.64c-.52,0-.79-.27-.79-.8v-15.79c0-.53.26-.8.79-.8h1.64c.52,0,.79.27.79.8v6.29h3.64v-6.29c0-.53.27-.8.8-.8h1.63c.52,0,.79.27.79.8v15.79c0,.53-.26.8-.79.8Z" fill="#fcb94a"/><path d="M561,730.08h-1.63c-.53,0-.8-.27-.8-.8v-6.29h-3.64v6.29c0,.53-.26.8-.79.8h-1.64c-.52,0-.79-.27-.79-.8v-15.79c0-.53.26-.8.79-.8h1.64c.52,0,.79.27.79.8v6.29h3.64v-6.29c0-.53.27-.8.8-.8h1.63c.52,0,.79.27.79.8v15.79c0,.53-.26.8-.79.8Z" fill="#f8d29a"/><path d="M570.91,730.08h-4.53c-.84,0-1.56-.3-2.16-.9s-.9-1.32-.9-2.16v-13.53c0-.53.27-.8.8-.8h6.72c.53,0,.8.27.8.8v1.63c0,.52-.27.79-.8.79h-4.3v3.87h3.6c.53,0,.8.27.8.8v1.63c0,.53-.27.8-.8.8h-3.6v3.87h4.37c.53,0,.8.27.8.8v1.62c0,.53-.27.8-.8.8Z" fill="#f8d29a"/><path d="M581.2,729.44l-.64-3.23h-3.36l-.64,3.23c-.09.43-.35.64-.79.64h-1.65c-.26,0-.46-.1-.62-.29-.16-.18-.22-.41-.17-.66l3.17-15.79c.08-.43.34-.64.77-.64h3.21c.44,0,.7.21.79.64l3.15,15.79c.04.26-.01.48-.17.66-.16.19-.37.29-.61.29h-1.66c-.44,0-.7-.21-.79-.64ZM579.92,723l-1.04-5.2-1.04,5.2h2.08Z" fill="#f8d29a"/><path d="M596.02,715.92v10.94c0,.86-.33,1.62-.99,2.26-.66.64-1.41.96-2.25.96h-5.95c-.53,0-.8-.27-.8-.8v-15.79c0-.53.27-.8.8-.8h5.94c.85,0,1.6.32,2.26.97.66.65.99,1.4.99,2.25ZM592.81,726.88v-10.97h-3.55v10.97h3.55Z" fill="#f8d29a"/><path d="M611.9,715.91h-2.39v13.38c0,.53-.27.8-.8.8h-1.63c-.53,0-.8-.27-.8-.8v-13.38h-2.39c-.53,0-.8-.26-.8-.79v-1.63c0-.53.27-.8.8-.8h8c.53,0,.8.27.8.8v1.63c0,.52-.27.79-.8.79Z" fill="#f8d29a"/><path d="M621.01,730.08h-3.54c-.86,0-1.61-.32-2.25-.96s-.97-1.38-.97-2.24v-13.39c0-.53.27-.8.8-.8h1.62c.53,0,.8.27.8.8v13.38h3.6v-13.38c0-.53.26-.8.79-.8h1.63c.53,0,.8.27.8.8v13.37c0,.86-.33,1.62-.99,2.26s-1.42.96-2.26.96Z" fill="#f8d29a"/><path d="M632.32,730.08h-5.72c-.52,0-.79-.27-.79-.8v-15.79c0-.53.26-.8.79-.8h5.72c.84,0,1.59.32,2.24.96.65.64.98,1.39.98,2.23v2.88c0,.73-.23,1.38-.7,1.94l-.54.66.56.7c.45.56.67,1.2.67,1.92v2.9c0,.86-.32,1.6-.97,2.24s-1.4.96-2.25.96ZM629.02,719.78h3.3v-3.87h-3.3v3.87ZM629.02,726.88h3.3v-3.87h-3.3v3.87Z" fill="#f8d29a"/><path d="M644.66,730.08h-4.53c-.84,0-1.56-.3-2.16-.9s-.9-1.32-.9-2.16v-13.53c0-.53.27-.8.8-.8h6.72c.53,0,.8.27.8.8v1.63c0,.52-.27.79-.8.79h-4.3v3.87h3.6c.53,0,.8.27.8.8v1.63c0,.53-.27.8-.8.8h-3.6v3.87h4.37c.53,0,.8.27.8.8v1.62c0,.53-.27.8-.8.8Z" fill="#f8d29a"/><path d="M660.49,729.44l-.64-3.23h-3.36l-.64,3.23c-.09.43-.35.64-.79.64h-1.65c-.26,0-.46-.1-.62-.29-.16-.18-.22-.41-.17-.66l3.17-15.79c.08-.43.34-.64.77-.64h3.21c.44,0,.7.21.79.64l3.15,15.79c.04.26-.01.48-.17.66-.16.19-.37.29-.61.29h-1.66c-.44,0-.7-.21-.79-.64ZM659.21,723l-1.04-5.2-1.04,5.2h2.08Z" fill="#f8d29a"/><path d="M671.83,729.58l-3.31-8.6v8.31c0,.53-.27.8-.8.8h-1.6c-.53,0-.8-.27-.8-.8v-15.79c0-.53.27-.8.8-.8h2.1c.35,0,.6.17.74.51l3.32,8.61v-8.32c0-.53.27-.8.8-.8h1.59c.53,0,.8.27.8.8v15.78c0,.52-.26.79-.79.79h-2.1c-.37.02-.62-.15-.75-.49Z" fill="#f8d29a"/><path d="M683.69,730.08h-3.46c-.85,0-1.59-.32-2.24-.95-.65-.63-.97-1.38-.97-2.24v-10.99c0-.85.33-1.6.98-2.24s1.4-.97,2.25-.97h3.44c.85,0,1.6.32,2.25.97.65.65.98,1.39.98,2.24v.55c0,.52-.26.79-.79.79h-1.63c-.53,0-.8-.26-.8-.79v-.55h-3.47v10.97h3.47v-3.87h-1.41c-.52,0-.79-.27-.79-.8v-1.63c0-.53.26-.8.79-.8h3.83c.52,0,.79.27.79.8v6.3c0,.86-.33,1.61-.98,2.25-.65.64-1.4.96-2.25.96Z" fill="#f8d29a"/><path d="M695.64,730.08h-4.11c-.84,0-1.56-.3-2.16-.9-.6-.6-.9-1.32-.9-2.16v-13.53c0-.53.27-.8.8-.8h1.63c.53,0,.8.27.8.8v13.38h3.95c.52,0,.79.27.79.8v1.62c0,.53-.26.8-.79.8Z" fill="#f8d29a"/><path d="M705.56,730.08h-4.53c-.84,0-1.56-.3-2.16-.9s-.9-1.32-.9-2.16v-13.53c0-.53.27-.8.8-.8h6.72c.53,0,.8.27.8.8v1.63c0,.52-.27.79-.8.79h-4.3v3.87h3.6c.53,0,.8.27.8.8v1.63c0,.53-.27.8-.8.8h-3.6v3.87h4.37c.53,0,.8.27.8.8v1.62c0,.53-.27.8-.8.8Z" fill="#f8d29a"/><rect x="538.4" y="719.77" width="8.09" height="3.01" rx=".65" ry=".65" fill="#f8d29a"/></g><g id="EffTT-button"><path d="M766.35,694.2h-2.9c-.86,0-1.61-.32-2.25-.96s-.97-1.38-.97-2.24v-.62c0-.53.27-.8.8-.8h1.63c.52,0,.79.27.79.8v.61h2.92v-13.38c0-.53.26-.8.79-.8h1.64c.52,0,.79.27.79.8v13.38c0,.86-.33,1.61-.98,2.25-.65.64-1.4.96-2.24.96Z" fill="#fcb94a"/><path d="M795.93,694.2h-4.53c-.84,0-1.56-.3-2.16-.9s-.9-1.32-.9-2.16v-13.53c0-.53.27-.8.8-.8h6.72c.53,0,.8.27.8.8v1.63c0,.52-.27.79-.8.79h-4.3v3.87h3.6c.53,0,.8.27.8.8v1.63c0,.53-.27.8-.8.8h-3.6v3.87h4.37c.53,0,.8.27.8.8v1.62c0,.53-.27.8-.8.8Z" fill="#f8d29a"/><path d="M805.79,680.02h-4.29v3.87h3.6c.52,0,.79.27.79.8v1.63c0,.53-.26.8-.79.8h-3.6v6.29c0,.53-.27.8-.8.8h-1.63c-.53,0-.8-.27-.8-.8v-13.52c0-.84.3-1.56.9-2.16.6-.6,1.32-.9,2.17-.9h4.45c.53,0,.8.27.8.8v1.63c0,.52-.27.79-.8.79Z" fill="#f8d29a"/><path d="M815.65,680.02h-4.29v3.87h3.6c.52,0,.79.27.79.8v1.63c0,.53-.26.8-.79.8h-3.6v6.29c0,.53-.27.8-.8.8h-1.63c-.53,0-.8-.27-.8-.8v-13.52c0-.84.3-1.56.9-2.16.6-.6,1.32-.9,2.17-.9h4.45c.53,0,.8.27.8.8v1.63c0,.52-.27.79-.8.79Z" fill="#f8d29a"/><path d="M825.58,694.2h-4.53c-.84,0-1.56-.3-2.16-.9s-.9-1.32-.9-2.16v-13.53c0-.53.27-.8.8-.8h6.72c.53,0,.8.27.8.8v1.63c0,.52-.27.79-.8.79h-4.3v3.87h3.6c.53,0,.8.27.8.8v1.63c0,.53-.27.8-.8.8h-3.6v3.87h4.37c.53,0,.8.27.8.8v1.62c0,.53-.27.8-.8.8Z" fill="#f8d29a"/><path d="M836.56,693.45c-.57.5-1.24.75-2,.75h-3.42c-.85,0-1.59-.32-2.24-.96s-.97-1.38-.97-2.24v-10.99c0-.85.32-1.59.97-2.23.65-.64,1.4-.96,2.25-.96h3.4c.85,0,1.6.32,2.26.97s.99,1.4.99,2.25v.51c0,.52-.27.79-.8.79h-1.63c-.52,0-.79-.26-.79-.79v-.52h-3.45v10.97h3.45v-.61c0-.53.26-.8.79-.8h1.63c.53,0,.8.27.8.8v.61c0,.93-.41,1.75-1.24,2.46Z" fill="#f8d29a"/><path d="M848.14,680.02h-2.39v13.38c0,.53-.27.8-.8.8h-1.63c-.53,0-.8-.27-.8-.8v-13.38h-2.39c-.53,0-.8-.26-.8-.79v-1.63c0-.53.27-.8.8-.8h8c.53,0,.8.27.8.8v1.63c0,.52-.27.79-.8.79Z" fill="#f8d29a"/><path d="M852.91,694.2h-1.63c-.53,0-.8-.27-.8-.8v-15.79c0-.53.27-.8.8-.8h1.63c.53,0,.8.27.8.8v15.79c0,.53-.27.8-.8.8Z" fill="#f8d29a"/><path d="M860.66,686.84c.45-2.04.81-3.66,1.08-4.87.27-1.21.61-2.72,1.01-4.54.1-.41.36-.62.79-.62h1.66c.26,0,.46.1.62.3.16.21.21.43.16.66l-3.53,15.81c-.09.41-.35.61-.77.61h-2.03c-.43,0-.68-.2-.76-.61l-3.53-15.81c-.06-.24,0-.46.15-.66.16-.2.36-.3.62-.3h1.66c.42,0,.68.21.79.62.4,1.82.73,3.33,1,4.54s.63,2.83,1.1,4.87Z" fill="#f8d29a"/><path d="M875.17,694.2h-4.53c-.84,0-1.56-.3-2.16-.9s-.9-1.32-.9-2.16v-13.53c0-.53.27-.8.8-.8h6.72c.53,0,.8.27.8.8v1.63c0,.52-.27.79-.8.79h-4.3v3.87h3.6c.53,0,.8.27.8.8v1.63c0,.53-.27.8-.8.8h-3.6v3.87h4.37c.53,0,.8.27.8.8v1.62c0,.53-.27.8-.8.8Z" fill="#f8d29a"/><path d="M891.85,680.02h-2.39v13.38c0,.53-.27.8-.8.8h-1.63c-.53,0-.8-.27-.8-.8v-13.38h-2.39c-.53,0-.8-.26-.8-.79v-1.63c0-.53.27-.8.8-.8h8c.53,0,.8.27.8.8v1.63c0,.52-.27.79-.8.79Z" fill="#f8d29a"/><path d="M901.07,694.2h-3.66c-.86,0-1.6-.32-2.25-.95-.64-.63-.96-1.38-.96-2.24v-11c0-.85.32-1.59.97-2.23.65-.64,1.39-.96,2.24-.96h3.65c.85,0,1.6.32,2.25.96.65.64.98,1.39.98,2.25v10.98c0,.86-.33,1.6-.98,2.24-.65.64-1.4.96-2.24.96ZM901.07,690.99v-10.97h-3.66v10.97h3.66Z" fill="#f8d29a"/><path d="M912.28,688.3h-3.23v5.1c0,.53-.26.8-.79.8h-1.63c-.53,0-.8-.27-.8-.8v-15.79c0-.53.27-.8.8-.8h5.65c.84,0,1.59.32,2.25.97.66.65.99,1.4.99,2.25v5.05c0,.86-.33,1.62-.99,2.26-.66.64-1.41.96-2.26.96ZM912.31,685.09v-5.07h-3.26v5.07h3.26Z" fill="#f8d29a"/><path d="M931.4,680.02h-2.39v13.38c0,.53-.27.8-.8.8h-1.63c-.53,0-.8-.27-.8-.8v-13.38h-2.39c-.53,0-.8-.26-.8-.79v-1.63c0-.53.27-.8.8-.8h8c.53,0,.8.27.8.8v1.63c0,.52-.27.79-.8.79Z" fill="#f8d29a"/><path d="M940.51,694.2h-3.54c-.86,0-1.61-.32-2.25-.96s-.97-1.38-.97-2.24v-13.39c0-.53.27-.8.8-.8h1.62c.53,0,.8.27.8.8v13.38h3.6v-13.38c0-.53.26-.8.79-.8h1.63c.53,0,.8.27.8.8v13.37c0,.86-.33,1.62-.99,2.26s-1.42.96-2.26.96Z" fill="#f8d29a"/><path d="M951.82,694.2h-5.72c-.52,0-.79-.27-.79-.8v-15.79c0-.53.26-.8.79-.8h5.72c.84,0,1.59.32,2.24.96.65.64.98,1.39.98,2.23v2.88c0,.73-.23,1.38-.7,1.94l-.54.66.56.7c.45.56.67,1.2.67,1.92v2.9c0,.86-.32,1.6-.97,2.24s-1.4.96-2.25.96ZM948.52,683.9h3.3v-3.87h-3.3v3.87ZM948.52,690.99h3.3v-3.87h-3.3v3.87Z" fill="#f8d29a"/><path d="M964.16,694.2h-4.53c-.84,0-1.56-.3-2.16-.9s-.9-1.32-.9-2.16v-13.53c0-.53.27-.8.8-.8h6.72c.53,0,.8.27.8.8v1.63c0,.52-.27.79-.8.79h-4.3v3.87h3.6c.53,0,.8.27.8.8v1.63c0,.53-.27.8-.8.8h-3.6v3.87h4.37c.53,0,.8.27.8.8v1.62c0,.53-.27.8-.8.8Z" fill="#f8d29a"/><path d="M979.21,694.2h-4.11c-.84,0-1.56-.3-2.16-.9-.6-.6-.9-1.32-.9-2.16v-13.53c0-.53.27-.8.8-.8h1.63c.53,0,.8.27.8.8v13.38h3.95c.52,0,.79.27.79.8v1.62c0,.53-.26.8-.79.8Z" fill="#f8d29a"/><path d="M989.13,694.2h-4.53c-.84,0-1.56-.3-2.16-.9s-.9-1.32-.9-2.16v-13.53c0-.53.27-.8.8-.8h6.72c.53,0,.8.27.8.8v1.63c0,.52-.27.79-.8.79h-4.3v3.87h3.6c.53,0,.8.27.8.8v1.63c0,.53-.27.8-.8.8h-3.6v3.87h4.37c.53,0,.8.27.8.8v1.62c0,.53-.27.8-.8.8Z" fill="#f8d29a"/><path d="M997.98,693.69l-3.31-8.6v8.31c0,.53-.27.8-.8.8h-1.6c-.53,0-.8-.27-.8-.8v-15.79c0-.53.27-.8.8-.8h2.1c.35,0,.6.17.74.51l3.32,8.61v-8.32c0-.53.27-.8.8-.8h1.59c.53,0,.8.27.8.8v15.78c0,.52-.26.79-.79.79h-2.1c-.37.02-.62-.15-.75-.49Z" fill="#f8d29a"/><path d="M1009.84,694.2h-3.46c-.85,0-1.59-.32-2.24-.95-.65-.63-.97-1.38-.97-2.24v-10.99c0-.85.33-1.6.98-2.24s1.4-.97,2.25-.97h3.44c.85,0,1.6.32,2.25.97.65.65.98,1.39.98,2.24v.55c0,.52-.26.79-.79.79h-1.63c-.53,0-.8-.26-.8-.79v-.55h-3.47v10.97h3.47v-3.87h-1.41c-.52,0-.79-.27-.79-.8v-1.63c0-.53.26-.8.79-.8h3.83c.52,0,.79.27.79.8v6.3c0,.86-.33,1.61-.98,2.25-.65.64-1.4.96-2.25.96Z" fill="#f8d29a"/><path d="M1023.42,680.02h-2.39v13.38c0,.53-.27.8-.8.8h-1.63c-.53,0-.8-.27-.8-.8v-13.38h-2.39c-.53,0-.8-.26-.8-.79v-1.63c0-.53.27-.8.8-.8h8c.53,0,.8.27.8.8v1.63c0,.52-.27.79-.8.79Z" fill="#f8d29a"/><path d="M1035.04,694.2h-1.63c-.53,0-.8-.27-.8-.8v-6.29h-3.64v6.29c0,.53-.26.8-.79.8h-1.64c-.52,0-.79-.27-.79-.8v-15.79c0-.53.26-.8.79-.8h1.64c.52,0,.79.27.79.8v6.29h3.64v-6.29c0-.53.27-.8.8-.8h1.63c.52,0,.79.27.79.8v15.79c0,.53-.26.8-.79.8Z" fill="#f8d29a"/><rect x="775.03" y="683.89" width="8.09" height="3.01" rx=".65" ry=".65" fill="#f8d29a"/></g><g id="HTLength-button"><path d="M769.9,713.85l-3.73,7.55,3.73,7.54c.12.26.11.52-.03.77-.16.25-.38.38-.68.38h-1.8c-.35,0-.59-.15-.72-.45l-3.23-6.63v6.29c0,.53-.27.8-.8.8h-1.63c-.52,0-.79-.27-.79-.8v-15.79c0-.53.26-.8.79-.8h1.63c.53,0,.8.27.8.8v6.29l3.23-6.63c.15-.3.39-.45.72-.45h1.8c.29,0,.51.12.68.38.15.27.16.52.03.77Z" fill="#fcb94a"/><path d="M797.63,730.08h-1.63c-.53,0-.8-.27-.8-.8v-6.29h-3.64v6.29c0,.53-.26.8-.79.8h-1.64c-.52,0-.79-.27-.79-.8v-15.79c0-.53.26-.8.79-.8h1.64c.52,0,.79.27.79.8v6.29h3.64v-6.29c0-.53.27-.8.8-.8h1.63c.52,0,.79.27.79.8v15.79c0,.53-.26.8-.79.8Z" fill="#f8d29a"/><path d="M807.54,730.08h-4.53c-.84,0-1.56-.3-2.16-.9s-.9-1.32-.9-2.16v-13.53c0-.53.27-.8.8-.8h6.72c.53,0,.8.27.8.8v1.63c0,.52-.27.79-.8.79h-4.3v3.87h3.6c.53,0,.8.27.8.8v1.63c0,.53-.27.8-.8.8h-3.6v3.87h4.37c.53,0,.8.27.8.8v1.62c0,.53-.27.8-.8.8Z" fill="#f8d29a"/><path d="M817.83,729.44l-.64-3.23h-3.36l-.64,3.23c-.09.43-.35.64-.79.64h-1.65c-.26,0-.46-.1-.62-.29-.16-.18-.22-.41-.17-.66l3.17-15.79c.08-.43.34-.64.77-.64h3.21c.44,0,.7.21.79.64l3.15,15.79c.04.26-.01.48-.17.66-.16.19-.37.29-.61.29h-1.66c-.44,0-.7-.21-.79-.64ZM816.55,723l-1.04-5.2-1.04,5.2h2.08Z" fill="#f8d29a"/><path d="M832.65,715.92v10.94c0,.86-.33,1.62-.99,2.26-.66.64-1.41.96-2.25.96h-5.95c-.53,0-.8-.27-.8-.8v-15.79c0-.53.27-.8.8-.8h5.94c.85,0,1.6.32,2.26.97.66.65.99,1.4.99,2.25ZM829.44,726.88v-10.97h-3.55v10.97h3.55Z" fill="#f8d29a"/><path d="M848.53,715.91h-2.39v13.38c0,.53-.27.8-.8.8h-1.63c-.53,0-.8-.27-.8-.8v-13.38h-2.39c-.53,0-.8-.26-.8-.79v-1.63c0-.53.27-.8.8-.8h8c.53,0,.8.27.8.8v1.63c0,.52-.27.79-.8.79Z" fill="#f8d29a"/><path d="M857.64,730.08h-3.54c-.86,0-1.61-.32-2.25-.96s-.97-1.38-.97-2.24v-13.39c0-.53.27-.8.8-.8h1.62c.53,0,.8.27.8.8v13.38h3.6v-13.38c0-.53.26-.8.79-.8h1.63c.53,0,.8.27.8.8v13.37c0,.86-.33,1.62-.99,2.26s-1.42.96-2.26.96Z" fill="#f8d29a"/><path d="M868.95,730.08h-5.72c-.52,0-.79-.27-.79-.8v-15.79c0-.53.26-.8.79-.8h5.72c.84,0,1.59.32,2.24.96.65.64.98,1.39.98,2.23v2.88c0,.73-.23,1.38-.7,1.94l-.54.66.56.7c.45.56.67,1.2.67,1.92v2.9c0,.86-.32,1.6-.97,2.24s-1.4.96-2.25.96ZM865.65,719.78h3.3v-3.87h-3.3v3.87ZM865.65,726.88h3.3v-3.87h-3.3v3.87Z" fill="#f8d29a"/><path d="M881.29,730.08h-4.53c-.84,0-1.56-.3-2.16-.9s-.9-1.32-.9-2.16v-13.53c0-.53.27-.8.8-.8h6.72c.53,0,.8.27.8.8v1.63c0,.52-.27.79-.8.79h-4.3v3.87h3.6c.53,0,.8.27.8.8v1.63c0,.53-.27.8-.8.8h-3.6v3.87h4.37c.53,0,.8.27.8.8v1.62c0,.53-.27.8-.8.8Z" fill="#f8d29a"/><path d="M896.34,730.08h-4.11c-.84,0-1.56-.3-2.16-.9-.6-.6-.9-1.32-.9-2.16v-13.53c0-.53.27-.8.8-.8h1.63c.53,0,.8.27.8.8v13.38h3.95c.52,0,.79.27.79.8v1.62c0,.53-.26.8-.79.8Z" fill="#f8d29a"/><path d="M906.26,730.08h-4.53c-.84,0-1.56-.3-2.16-.9s-.9-1.32-.9-2.16v-13.53c0-.53.27-.8.8-.8h6.72c.53,0,.8.27.8.8v1.63c0,.52-.27.79-.8.79h-4.3v3.87h3.6c.53,0,.8.27.8.8v1.63c0,.53-.27.8-.8.8h-3.6v3.87h4.37c.53,0,.8.27.8.8v1.62c0,.53-.27.8-.8.8Z" fill="#f8d29a"/><path d="M915.11,729.58l-3.31-8.6v8.31c0,.53-.27.8-.8.8h-1.6c-.53,0-.8-.27-.8-.8v-15.79c0-.53.27-.8.8-.8h2.1c.35,0,.6.17.74.51l3.32,8.61v-8.32c0-.53.27-.8.8-.8h1.59c.53,0,.8.27.8.8v15.78c0,.52-.26.79-.79.79h-2.1c-.37.02-.62-.15-.75-.49Z" fill="#f8d29a"/><path d="M926.97,730.08h-3.46c-.85,0-1.59-.32-2.24-.95-.65-.63-.97-1.38-.97-2.24v-10.99c0-.85.33-1.6.98-2.24s1.4-.97,2.25-.97h3.44c.85,0,1.6.32,2.25.97.65.65.98,1.39.98,2.24v.55c0,.52-.26.79-.79.79h-1.63c-.53,0-.8-.26-.8-.79v-.55h-3.47v10.97h3.47v-3.87h-1.41c-.52,0-.79-.27-.79-.8v-1.63c0-.53.26-.8.79-.8h3.83c.52,0,.79.27.79.8v6.3c0,.86-.33,1.61-.98,2.25-.65.64-1.4.96-2.25.96Z" fill="#f8d29a"/><path d="M940.55,715.91h-2.39v13.38c0,.53-.27.8-.8.8h-1.63c-.53,0-.8-.27-.8-.8v-13.38h-2.39c-.53,0-.8-.26-.8-.79v-1.63c0-.53.27-.8.8-.8h8c.53,0,.8.27.8.8v1.63c0,.52-.27.79-.8.79Z" fill="#f8d29a"/><path d="M952.17,730.08h-1.63c-.53,0-.8-.27-.8-.8v-6.29h-3.64v6.29c0,.53-.26.8-.79.8h-1.64c-.52,0-.79-.27-.79-.8v-15.79c0-.53.26-.8.79-.8h1.64c.52,0,.79.27.79.8v6.29h3.64v-6.29c0-.53.27-.8.8-.8h1.63c.52,0,.79.27.79.8v15.79c0,.53-.26.8-.79.8Z" fill="#f8d29a"/><rect x="775.03" y="719.77" width="8.09" height="3.01" rx=".65" ry=".65" fill="#f8d29a"/></g><g id="Wheelbase-button"><path d="M317.31,751.79h-4.29v3.87h3.6c.52,0,.79.27.79.8v1.63c0,.53-.26.8-.79.8h-3.6v6.29c0,.53-.27.8-.8.8h-1.63c-.53,0-.8-.27-.8-.8v-13.52c0-.84.3-1.56.9-2.16.6-.6,1.32-.9,2.17-.9h4.45c.53,0,.8.27.8.8v1.63c0,.52-.27.79-.8.79Z" fill="#fcb94a"/><path d="M353.07,749.51l-2.66,15.8c-.08.44-.34.65-.77.65h-1.96c-.44,0-.7-.21-.77-.63l-1.38-6.88-1.38,6.88c-.09.42-.35.63-.77.63h-1.96c-.45,0-.71-.22-.79-.65l-2.63-15.8c-.04-.24.01-.45.18-.64.16-.19.36-.29.61-.29h1.66c.46,0,.72.22.79.67l1.22,8.21,1.63-8.24c.08-.43.34-.64.79-.64h1.36c.43,0,.69.21.77.64l1.62,8.25,1.22-8.22c.06-.45.32-.67.79-.67h1.68c.24,0,.44.1.61.29.15.18.21.39.18.64Z" fill="#f8d29a"/><path d="M363.93,765.97h-1.63c-.53,0-.8-.27-.8-.8v-6.29h-3.64v6.29c0,.53-.26.8-.79.8h-1.64c-.52,0-.79-.27-.79-.8v-15.79c0-.53.26-.8.79-.8h1.64c.52,0,.79.27.79.8v6.29h3.64v-6.29c0-.53.27-.8.8-.8h1.63c.52,0,.79.27.79.8v15.79c0,.53-.26.8-.79.8Z" fill="#f8d29a"/><path d="M373.85,765.97h-4.53c-.84,0-1.56-.3-2.16-.9s-.9-1.32-.9-2.16v-13.53c0-.53.27-.8.8-.8h6.72c.53,0,.8.27.8.8v1.63c0,.52-.27.79-.8.79h-4.3v3.87h3.6c.53,0,.8.27.8.8v1.63c0,.53-.27.8-.8.8h-3.6v3.87h4.37c.53,0,.8.27.8.8v1.62c0,.53-.27.8-.8.8Z" fill="#f8d29a"/><path d="M383.77,765.97h-4.53c-.84,0-1.56-.3-2.16-.9s-.9-1.32-.9-2.16v-13.53c0-.53.27-.8.8-.8h6.72c.53,0,.8.27.8.8v1.63c0,.52-.27.79-.8.79h-4.3v3.87h3.6c.53,0,.8.27.8.8v1.63c0,.53-.27.8-.8.8h-3.6v3.87h4.37c.53,0,.8.27.8.8v1.62c0,.53-.27.8-.8.8Z" fill="#f8d29a"/><path d="M393.29,765.97h-4.11c-.84,0-1.56-.3-2.16-.9-.6-.6-.9-1.32-.9-2.16v-13.53c0-.53.27-.8.8-.8h1.63c.53,0,.8.27.8.8v13.38h3.95c.52,0,.79.27.79.8v1.62c0,.53-.26.8-.79.8Z" fill="#f8d29a"/><path d="M402.13,765.97h-5.72c-.52,0-.79-.27-.79-.8v-15.79c0-.53.26-.8.79-.8h5.72c.84,0,1.59.32,2.24.96.65.64.98,1.39.98,2.23v2.88c0,.73-.23,1.38-.7,1.94l-.54.66.56.7c.45.56.67,1.2.67,1.92v2.9c0,.86-.32,1.6-.97,2.24s-1.4.96-2.25.96ZM398.83,755.67h3.3v-3.87h-3.3v3.87ZM398.83,762.76h3.3v-3.87h-3.3v3.87Z" fill="#f8d29a"/><path d="M414.85,765.33l-.64-3.23h-3.36l-.64,3.23c-.09.43-.35.64-.79.64h-1.65c-.26,0-.46-.1-.62-.29-.16-.18-.22-.41-.17-.66l3.17-15.79c.08-.43.34-.64.77-.64h3.21c.44,0,.7.21.79.64l3.15,15.79c.04.26-.01.48-.17.66-.16.19-.37.29-.61.29h-1.66c-.44,0-.7-.21-.79-.64ZM413.56,758.89l-1.04-5.2-1.04,5.2h2.08Z" fill="#f8d29a"/><path d="M426.13,765.97h-3.23c-.86,0-1.61-.32-2.25-.96s-.97-1.39-.97-2.25v-.61c0-.53.26-.8.79-.8h1.63c.53,0,.8.27.8.8v.61h3.24v-3.87h-3.23c-.86,0-1.61-.32-2.25-.96s-.97-1.39-.97-2.25v-3.88c0-.85.32-1.6.97-2.24s1.4-.97,2.25-.97h3.23c.85,0,1.6.32,2.24.96.65.64.97,1.39.97,2.23v.53c0,.52-.26.79-.79.79h-1.63c-.53,0-.8-.26-.8-.79v-.52h-3.24v3.87h3.24c.85,0,1.6.32,2.24.96.65.64.97,1.39.97,2.23v3.91c0,.86-.32,1.61-.97,2.25-.65.63-1.39.95-2.24.95Z" fill="#f8d29a"/><path d="M438.47,765.97h-4.53c-.84,0-1.56-.3-2.16-.9s-.9-1.32-.9-2.16v-13.53c0-.53.27-.8.8-.8h6.72c.53,0,.8.27.8.8v1.63c0,.52-.27.79-.8.79h-4.3v3.87h3.6c.53,0,.8.27.8.8v1.63c0,.53-.27.8-.8.8h-3.6v3.87h4.37c.53,0,.8.27.8.8v1.62c0,.53-.27.8-.8.8Z" fill="#f8d29a"/><rect x="324.59" y="755.66" width="8.09" height="3.01" rx=".65" ry=".65" fill="#f8d29a"/></g><g id="Trail-button"><path d="M160.62,765.22c-.57.5-1.24.75-2,.75h-3.42c-.85,0-1.59-.32-2.24-.96s-.97-1.38-.97-2.24v-10.99c0-.85.32-1.59.97-2.23.65-.64,1.4-.96,2.25-.96h3.4c.85,0,1.6.32,2.26.97s.99,1.4.99,2.25v.51c0,.52-.27.79-.8.79h-1.63c-.52,0-.79-.26-.79-.79v-.52h-3.45v10.97h3.45v-.61c0-.53.26-.8.79-.8h1.63c.53,0,.8.27.8.8v.61c0,.93-.41,1.75-1.24,2.46Z" fill="#fcb94a"/><path d="M188.91,751.8h-2.39v13.38c0,.53-.27.8-.8.8h-1.63c-.53,0-.8-.27-.8-.8v-13.38h-2.39c-.53,0-.8-.26-.8-.79v-1.63c0-.53.27-.8.8-.8h8c.53,0,.8.27.8.8v1.63c0,.52-.27.79-.8.79Z" fill="#f8d29a"/><path d="M200.45,765.97h-1.74c-.35,0-.6-.17-.73-.51l-2.54-6.57h-.95v6.29c0,.53-.27.8-.8.8h-1.63c-.53,0-.8-.27-.8-.8v-15.79c0-.53.27-.8.8-.8h5.65c.85,0,1.6.32,2.26.97.66.65.98,1.4.98,2.25v3.85c0,.68-.21,1.29-.63,1.85-.42.55-.94.94-1.55,1.17l2.41,6.21c.1.27.08.52-.08.74-.16.23-.38.34-.66.34ZM197.73,755.67v-3.87h-3.25v3.87h3.25Z" fill="#f8d29a"/><path d="M210.84,765.33l-.64-3.23h-3.36l-.64,3.23c-.09.43-.35.64-.79.64h-1.65c-.26,0-.46-.1-.62-.29-.16-.18-.22-.41-.17-.66l3.17-15.79c.08-.43.34-.64.77-.64h3.21c.44,0,.7.21.79.64l3.15,15.79c.04.26-.01.48-.17.66-.16.19-.37.29-.61.29h-1.66c-.44,0-.7-.21-.79-.64ZM209.55,758.89l-1.04-5.2-1.04,5.2h2.08Z" fill="#f8d29a"/><path d="M218.1,765.97h-1.63c-.53,0-.8-.27-.8-.8v-15.79c0-.53.27-.8.8-.8h1.63c.53,0,.8.27.8.8v15.79c0,.53-.27.8-.8.8Z" fill="#f8d29a"/><path d="M227.61,765.97h-4.11c-.84,0-1.56-.3-2.16-.9-.6-.6-.9-1.32-.9-2.16v-13.53c0-.53.27-.8.8-.8h1.63c.53,0,.8.27.8.8v13.38h3.95c.52,0,.79.27.79.8v1.62c0,.53-.26.8-.79.8Z" fill="#f8d29a"/><rect x="166.79" y="755.66" width="8.09" height="3.01" rx=".65" ry=".65" fill="#f8d29a"/></g><g id="Chainstay-button"><path d="M529.28,765.97h-1.63c-.53,0-.8-.27-.8-.8v-15.79c0-.53.27-.8.8-.8h1.63c.53,0,.8.27.8.8v15.79c0,.53-.27.8-.8.8Z" fill="#fcb94a"/><path d="M560.36,765.22c-.57.5-1.24.75-2,.75h-3.42c-.85,0-1.59-.32-2.24-.96s-.97-1.38-.97-2.24v-10.99c0-.85.32-1.59.97-2.23.65-.64,1.4-.96,2.25-.96h3.4c.85,0,1.6.32,2.26.97s.99,1.4.99,2.25v.51c0,.52-.27.79-.8.79h-1.63c-.52,0-.79-.26-.79-.79v-.52h-3.45v10.97h3.45v-.61c0-.53.26-.8.79-.8h1.63c.53,0,.8.27.8.8v.61c0,.93-.41,1.75-1.24,2.46Z" fill="#f8d29a"/><path d="M572.42,765.97h-1.63c-.53,0-.8-.27-.8-.8v-6.29h-3.64v6.29c0,.53-.26.8-.79.8h-1.64c-.52,0-.79-.27-.79-.8v-15.79c0-.53.26-.8.79-.8h1.64c.52,0,.79.27.79.8v6.29h3.64v-6.29c0-.53.27-.8.8-.8h1.63c.52,0,.79.27.79.8v15.79c0,.53-.26.8-.79.8Z" fill="#f8d29a"/><path d="M582.7,765.33l-.64-3.23h-3.36l-.64,3.23c-.09.43-.35.64-.79.64h-1.65c-.26,0-.46-.1-.62-.29-.16-.18-.22-.41-.17-.66l3.17-15.79c.08-.43.34-.64.77-.64h3.21c.44,0,.7.21.79.64l3.15,15.79c.04.26-.01.48-.17.66-.16.19-.37.29-.61.29h-1.66c-.44,0-.7-.21-.79-.64ZM581.41,758.89l-1.04-5.2-1.04,5.2h2.08Z" fill="#f8d29a"/><path d="M589.96,765.97h-1.63c-.53,0-.8-.27-.8-.8v-15.79c0-.53.27-.8.8-.8h1.63c.53,0,.8.27.8.8v15.79c0,.53-.27.8-.8.8Z" fill="#f8d29a"/><path d="M598.81,765.46l-3.31-8.6v8.31c0,.53-.27.8-.8.8h-1.6c-.53,0-.8-.27-.8-.8v-15.79c0-.53.27-.8.8-.8h2.1c.35,0,.6.17.74.51l3.32,8.61v-8.32c0-.53.27-.8.8-.8h1.59c.53,0,.8.27.8.8v15.78c0,.52-.26.79-.79.79h-2.1c-.37.02-.62-.15-.75-.49Z" fill="#f8d29a"/><path d="M615.98,765.97h-3.23c-.86,0-1.61-.32-2.25-.96s-.97-1.39-.97-2.25v-.61c0-.53.26-.8.79-.8h1.63c.53,0,.8.27.8.8v.61h3.24v-3.87h-3.23c-.86,0-1.61-.32-2.25-.96s-.97-1.39-.97-2.25v-3.88c0-.85.32-1.6.97-2.24s1.4-.97,2.25-.97h3.23c.85,0,1.6.32,2.24.96.65.64.97,1.39.97,2.23v.53c0,.52-.26.79-.79.79h-1.63c-.53,0-.8-.26-.8-.79v-.52h-3.24v3.87h3.24c.85,0,1.6.32,2.24.96.65.64.97,1.39.97,2.23v3.91c0,.86-.32,1.61-.97,2.25-.65.63-1.39.95-2.24.95Z" fill="#f8d29a"/><path d="M629.54,751.79h-2.39v13.38c0,.53-.27.8-.8.8h-1.63c-.53,0-.8-.27-.8-.8v-13.38h-2.39c-.53,0-.8-.26-.8-.79v-1.63c0-.53.27-.8.8-.8h8c.53,0,.8.27.8.8v1.63c0,.52-.27.79-.8.79Z" fill="#f8d29a"/><path d="M636.79,765.33l-.64-3.23h-3.36l-.64,3.23c-.09.43-.35.64-.79.64h-1.65c-.26,0-.46-.1-.62-.29-.16-.18-.22-.41-.17-.66l3.17-15.79c.08-.43.34-.64.77-.64h3.21c.44,0,.7.21.79.64l3.15,15.79c.04.26-.01.48-.17.66-.16.19-.37.29-.61.29h-1.66c-.44,0-.7-.21-.79-.64ZM635.5,758.89l-1.04-5.2-1.04,5.2h2.08Z" fill="#f8d29a"/><path d="M645.24,759.56v5.61c0,.53-.27.8-.8.8h-1.66c-.53,0-.8-.27-.8-.8v-5.63l-3.49-9.89c-.1-.26-.06-.5.1-.73.17-.22.39-.33.65-.33h1.62c.38,0,.63.18.75.54l2,5.93,1.97-5.93c.12-.36.37-.54.75-.54h1.72c.27,0,.48.11.64.34.15.22.19.46.1.72l-3.56,9.91Z" fill="#f8d29a"/><path d="M663.19,765.97h-4.11c-.84,0-1.56-.3-2.16-.9-.6-.6-.9-1.32-.9-2.16v-13.53c0-.53.27-.8.8-.8h1.63c.53,0,.8.27.8.8v13.38h3.95c.52,0,.79.27.79.8v1.62c0,.53-.26.8-.79.8Z" fill="#f8d29a"/><path d="M673.1,765.97h-4.53c-.84,0-1.56-.3-2.16-.9s-.9-1.32-.9-2.16v-13.53c0-.53.27-.8.8-.8h6.72c.53,0,.8.27.8.8v1.63c0,.52-.27.79-.8.79h-4.3v3.87h3.6c.53,0,.8.27.8.8v1.63c0,.53-.27.8-.8.8h-3.6v3.87h4.37c.53,0,.8.27.8.8v1.62c0,.53-.27.8-.8.8Z" fill="#f8d29a"/><path d="M681.96,765.46l-3.31-8.6v8.31c0,.53-.27.8-.8.8h-1.6c-.53,0-.8-.27-.8-.8v-15.79c0-.53.27-.8.8-.8h2.1c.35,0,.6.17.74.51l3.32,8.61v-8.32c0-.53.27-.8.8-.8h1.59c.53,0,.8.27.8.8v15.78c0,.52-.26.79-.79.79h-2.1c-.37.02-.62-.15-.75-.49Z" fill="#f8d29a"/><path d="M693.82,765.97h-3.46c-.85,0-1.59-.32-2.24-.95-.65-.63-.97-1.38-.97-2.24v-10.99c0-.85.33-1.6.98-2.24s1.4-.97,2.25-.97h3.44c.85,0,1.6.32,2.25.97.65.65.98,1.39.98,2.24v.55c0,.52-.26.79-.79.79h-1.63c-.53,0-.8-.26-.8-.79v-.55h-3.47v10.97h3.47v-3.87h-1.41c-.52,0-.79-.27-.79-.8v-1.63c0-.53.26-.8.79-.8h3.83c.52,0,.79.27.79.8v6.3c0,.86-.33,1.61-.98,2.25-.65.64-1.4.96-2.25.96Z" fill="#f8d29a"/><path d="M707.4,751.79h-2.39v13.38c0,.53-.27.8-.8.8h-1.63c-.53,0-.8-.27-.8-.8v-13.38h-2.39c-.53,0-.8-.26-.8-.79v-1.63c0-.53.27-.8.8-.8h8c.53,0,.8.27.8.8v1.63c0,.52-.27.79-.8.79Z" fill="#f8d29a"/><path d="M719.01,765.97h-1.63c-.53,0-.8-.27-.8-.8v-6.29h-3.64v6.29c0,.53-.26.8-.79.8h-1.64c-.52,0-.79-.27-.79-.8v-15.79c0-.53.26-.8.79-.8h1.64c.52,0,.79.27.79.8v6.29h3.64v-6.29c0-.53.27-.8.8-.8h1.63c.52,0,.79.27.79.8v15.79c0,.53-.26.8-.79.8Z" fill="#f8d29a"/><rect x="538.4" y="755.66" width="8.09" height="3.01" rx=".65" ry=".65" fill="#f8d29a"/></g><g id="BBdrop-button"><path d="M767.4,765.97h-4.11c-.84,0-1.56-.3-2.16-.9-.6-.6-.9-1.32-.9-2.16v-13.53c0-.53.27-.8.8-.8h1.63c.53,0,.8.27.8.8v13.38h3.95c.52,0,.79.27.79.8v1.62c0,.53-.26.8-.79.8Z" fill="#fcb94a"/><path d="M794.86,765.97h-5.72c-.52,0-.79-.27-.79-.8v-15.79c0-.53.26-.8.79-.8h5.72c.84,0,1.59.32,2.24.96.65.64.98,1.39.98,2.23v2.88c0,.73-.23,1.38-.7,1.94l-.54.66.56.7c.45.56.67,1.2.67,1.92v2.9c0,.86-.32,1.6-.97,2.24s-1.4.96-2.25.96ZM791.56,755.67h3.3v-3.87h-3.3v3.87ZM791.56,762.76h3.3v-3.87h-3.3v3.87Z" fill="#f8d29a"/><path d="M806.5,765.97h-3.66c-.86,0-1.6-.32-2.25-.95-.64-.63-.96-1.38-.96-2.24v-11c0-.85.32-1.59.97-2.23.65-.64,1.39-.96,2.24-.96h3.65c.85,0,1.6.32,2.25.96.65.64.98,1.39.98,2.25v10.98c0,.86-.33,1.6-.98,2.24-.65.64-1.4.96-2.24.96ZM806.5,762.76v-10.97h-3.66v10.97h3.66Z" fill="#f8d29a"/><path d="M820.07,751.79h-2.39v13.38c0,.53-.27.8-.8.8h-1.63c-.53,0-.8-.27-.8-.8v-13.38h-2.39c-.53,0-.8-.26-.8-.79v-1.63c0-.53.27-.8.8-.8h8c.53,0,.8.27.8.8v1.63c0,.52-.27.79-.8.79Z" fill="#f8d29a"/><path d="M831.21,751.79h-2.39v13.38c0,.53-.27.8-.8.8h-1.63c-.53,0-.8-.27-.8-.8v-13.38h-2.39c-.53,0-.8-.26-.8-.79v-1.63c0-.53.27-.8.8-.8h8c.53,0,.8.27.8.8v1.63c0,.52-.27.79-.8.79Z" fill="#f8d29a"/><path d="M840.43,765.97h-3.66c-.86,0-1.6-.32-2.25-.95-.64-.63-.96-1.38-.96-2.24v-11c0-.85.32-1.59.97-2.23.65-.64,1.39-.96,2.24-.96h3.65c.85,0,1.6.32,2.25.96.65.64.98,1.39.98,2.25v10.98c0,.86-.33,1.6-.98,2.24-.65.64-1.4.96-2.24.96ZM840.43,762.76v-10.97h-3.66v10.97h3.66Z" fill="#f8d29a"/><path d="M856.42,765.97h-1.63c-.53,0-.8-.27-.8-.8v-9l-2.08,4.44c-.14.3-.38.45-.72.45s-.58-.15-.71-.45l-2.08-4.44v9c0,.53-.27.8-.8.8h-1.63c-.52,0-.79-.27-.79-.8v-15.79c0-.53.26-.8.79-.8h1.91c.33,0,.57.15.72.46l2.58,5.51,2.59-5.51c.14-.31.38-.46.72-.46h1.91c.53,0,.8.27.8.8v15.79c0,.53-.27.8-.8.8Z" fill="#f8d29a"/><path d="M870.8,765.97h-5.72c-.52,0-.79-.27-.79-.8v-15.79c0-.53.26-.8.79-.8h5.72c.84,0,1.59.32,2.24.96.65.64.98,1.39.98,2.23v2.88c0,.73-.23,1.38-.7,1.94l-.54.66.56.7c.45.56.67,1.2.67,1.92v2.9c0,.86-.32,1.6-.97,2.24s-1.4.96-2.25.96ZM867.51,755.67h3.3v-3.87h-3.3v3.87ZM867.51,762.76h3.3v-3.87h-3.3v3.87Z" fill="#f8d29a"/><path d="M884.76,765.97h-1.74c-.35,0-.6-.17-.73-.51l-2.54-6.57h-.95v6.29c0,.53-.27.8-.8.8h-1.63c-.53,0-.8-.27-.8-.8v-15.79c0-.53.27-.8.8-.8h5.65c.85,0,1.6.32,2.26.97.66.65.98,1.4.98,2.25v3.85c0,.68-.21,1.29-.63,1.85-.42.55-.94.94-1.55,1.17l2.41,6.21c.1.27.08.52-.08.74-.16.23-.38.34-.66.34ZM882.05,755.67v-3.87h-3.25v3.87h3.25Z" fill="#f8d29a"/><path d="M895.15,765.33l-.64-3.23h-3.36l-.64,3.23c-.09.43-.35.64-.79.64h-1.65c-.26,0-.46-.1-.62-.29-.16-.18-.22-.41-.17-.66l3.17-15.79c.08-.43.34-.64.77-.64h3.21c.44,0,.7.21.79.64l3.15,15.79c.04.26-.01.48-.17.66-.16.19-.37.29-.61.29h-1.66c-.44,0-.7-.21-.79-.64ZM893.87,758.89l-1.04-5.2-1.04,5.2h2.08Z" fill="#f8d29a"/><path d="M908.23,765.22c-.57.5-1.24.75-2,.75h-3.42c-.85,0-1.59-.32-2.24-.96s-.97-1.38-.97-2.24v-10.99c0-.85.32-1.59.97-2.23.65-.64,1.4-.96,2.25-.96h3.4c.85,0,1.6.32,2.26.97s.99,1.4.99,2.25v.51c0,.52-.27.79-.8.79h-1.63c-.52,0-.79-.26-.79-.79v-.52h-3.45v10.97h3.45v-.61c0-.53.26-.8.79-.8h1.63c.53,0,.8.27.8.8v.61c0,.93-.41,1.75-1.24,2.46Z" fill="#f8d29a"/><path d="M920.69,749.74l-3.73,7.55,3.73,7.54c.12.26.11.52-.03.77-.16.25-.38.38-.68.38h-1.8c-.35,0-.59-.15-.72-.45l-3.23-6.63v6.29c0,.53-.27.8-.8.8h-1.63c-.52,0-.79-.27-.79-.8v-15.79c0-.53.26-.8.79-.8h1.63c.53,0,.8.27.8.8v6.29l3.23-6.63c.15-.3.39-.45.72-.45h1.8c.29,0,.51.12.68.38.15.27.16.52.03.77Z" fill="#f8d29a"/><path d="M930,765.97h-4.53c-.84,0-1.56-.3-2.16-.9s-.9-1.32-.9-2.16v-13.53c0-.53.27-.8.8-.8h6.72c.53,0,.8.27.8.8v1.63c0,.52-.27.79-.8.79h-4.3v3.87h3.6c.53,0,.8.27.8.8v1.63c0,.53-.27.8-.8.8h-3.6v3.87h4.37c.53,0,.8.27.8.8v1.62c0,.53-.27.8-.8.8Z" fill="#f8d29a"/><path d="M941.15,751.79h-2.39v13.38c0,.53-.27.8-.8.8h-1.63c-.53,0-.8-.27-.8-.8v-13.38h-2.39c-.53,0-.8-.26-.8-.79v-1.63c0-.53.27-.8.8-.8h8c.53,0,.8.27.8.8v1.63c0,.52-.27.79-.8.79Z" fill="#f8d29a"/><path d="M959.01,751.81v10.94c0,.86-.33,1.62-.99,2.26-.66.64-1.41.96-2.25.96h-5.95c-.53,0-.8-.27-.8-.8v-15.79c0-.53.27-.8.8-.8h5.94c.85,0,1.6.32,2.26.97.66.65.99,1.4.99,2.25ZM955.8,762.76v-10.97h-3.55v10.97h3.55Z" fill="#f8d29a"/><path d="M969.74,765.97h-1.74c-.35,0-.6-.17-.73-.51l-2.54-6.57h-.95v6.29c0,.53-.27.8-.8.8h-1.63c-.53,0-.8-.27-.8-.8v-15.79c0-.53.27-.8.8-.8h5.65c.85,0,1.6.32,2.26.97.66.65.98,1.4.98,2.25v3.85c0,.68-.21,1.29-.63,1.85-.42.55-.94.94-1.55,1.17l2.41,6.21c.1.27.08.52-.08.74-.16.23-.38.34-.66.34ZM967.03,755.67v-3.87h-3.25v3.87h3.25Z" fill="#f8d29a"/><path d="M979.06,765.97h-3.66c-.86,0-1.6-.32-2.25-.95-.64-.63-.96-1.38-.96-2.24v-11c0-.85.32-1.59.97-2.23.65-.64,1.39-.96,2.24-.96h3.65c.85,0,1.6.32,2.25.96.65.64.98,1.39.98,2.25v10.98c0,.86-.33,1.6-.98,2.24-.65.64-1.4.96-2.24.96ZM979.06,762.76v-10.97h-3.66v10.97h3.66Z" fill="#f8d29a"/><path d="M990.27,760.07h-3.23v5.1c0,.53-.26.8-.79.8h-1.63c-.53,0-.8-.27-.8-.8v-15.79c0-.53.27-.8.8-.8h5.65c.84,0,1.59.32,2.25.97.66.65.99,1.4.99,2.25v5.05c0,.86-.33,1.62-.99,2.26-.66.64-1.41.96-2.26.96ZM990.3,756.86v-5.07h-3.26v5.07h3.26Z" fill="#f8d29a"/><rect x="775.03" y="755.66" width="8.09" height="3.01" rx=".65" ry=".65" fill="#f8d29a"/></g></g></svg>